<svg height="512" viewBox="0 0 64 64" width="512" xmlns="http://www.w3.org/2000/svg"><g id="Banking"><path d="m23 20h2v8h-2z"/><path d="m27 20h2v8h-2z"/><path d="m15 46h4v2h-4z"/><path d="m20 30h24v2h-24z"/><circle cx="32" cy="14" r="1"/><path d="m15 42h4v2h-4z"/><path d="m39 20h2v8h-2z"/><path d="m35 20h2v8h-2z"/><path d="m31 20h2v8h-2z"/><path d="m32 8.361-10.442 9.639h20.884zm0 8.639a3 3 0 1 1 3-3 3 3 0 0 1 -3 3z"/><path d="m33 38h16v2h-16z"/><path d="m33 42h16v2h-16z"/><path d="m15 38h4v2h-4z"/><path d="m5 54v3a3 3 0 0 0 3 3h38.026a4.948 4.948 0 0 1 -1.026-3v-3z"/><path d="m53 4h-42v48h35a1 1 0 0 1 1 1v4a3 3 0 0 0 6 0zm-35 25a1 1 0 0 1 1-1h2v-8h-2a1 1 0 0 1 -.678-1.735l13-12a1 1 0 0 1 1.356 0l13 12a1 1 0 0 1 -.678 1.735h-2v8h2a1 1 0 0 1 1 1v4a1 1 0 0 1 -1 1h-26a1 1 0 0 1 -1-1zm33 20a1 1 0 0 1 -1 1h-36a1 1 0 0 1 -1-1v-12a1 1 0 0 1 1-1h36a1 1 0 0 1 1 1z"/><path d="m33 46h16v2h-16z"/><path d="m21 38h10v2h-10z"/><path d="m21 46h10v2h-10z"/><path d="m21 42h10v2h-10z"/></g></svg>