<svg height="512" viewBox="0 0 64 64" width="512" xmlns="http://www.w3.org/2000/svg" xmlns:xlink="http://www.w3.org/1999/xlink"><linearGradient id="New_Gradient_Swatch_3" gradientUnits="userSpaceOnUse" x1="32.014" x2="32.014" y1="65.846" y2="3.862"><stop offset="0" stop-color="#006df0"/><stop offset="1" stop-color="#00e7f0"/></linearGradient><linearGradient id="New_Gradient_Swatch_3-2" x1="32" x2="32" xlink:href="#New_Gradient_Swatch_3" y1="65.846" y2="3.862"/><linearGradient id="New_Gradient_Swatch_3-4" x1="15" x2="15" xlink:href="#New_Gradient_Swatch_3" y1="65.846" y2="3.862"/><linearGradient id="New_Gradient_Swatch_3-5" x1="49" x2="49" xlink:href="#New_Gradient_Swatch_3" y1="65.846" y2="3.862"/><g id="Bank"><path d="m48.737 18.177-16.137-11.141a1 1 0 0 0 -1.136 0l-16.172 11.14a1 1 0 0 0 .568 1.824h32.308a1 1 0 0 0 .569-1.823zm-29.662-.177 12.96-8.926 12.925 8.926z" fill="url(#New_Gradient_Swatch_3)"/><path d="m61 56h-1v-3a1 1 0 0 0 -1-1h-1v-3a1 1 0 0 0 -1-1h-1v-3a1 1 0 0 0 -1-1h-1v-12h1a1 1 0 0 0 1-1v-3h3a1 1 0 0 0 1-1v-3h1a1 1 0 0 0 .568-1.823l-28.961-20a1 1 0 0 0 -1.136 0l-29.038 20a1 1 0 0 0 .567 1.823h1v3a1 1 0 0 0 1 1h3v3a1 1 0 0 0 1 1h1v12h-1a1 1 0 0 0 -1 1v3h-1a1 1 0 0 0 -1 1v3h-1a1 1 0 0 0 -1 1v3h-1a1 1 0 0 0 -1 1v4a1 1 0 0 0 1 1h58a1 1 0 0 0 1-1v-4a1 1 0 0 0 -1-1zm-7-26h-10v-2h10zm-16 14h-1v-12h1a1 1 0 0 0 1-1v-3h3v3a1 1 0 0 0 1 1h1v12h-1a1 1 0 0 0 -1 1v3h-3v-3a1 1 0 0 0 -1-1zm-17 0h-1v-12h1a1 1 0 0 0 1-1v-3h3v3a1 1 0 0 0 1 1h1v12h-1a1 1 0 0 0 -1 1v3h-3v-3a1 1 0 0 0 -1-1zm-11-14v-2h10v2zm8 2v12h-6v-12zm9 14h10v2h-10zm2-2v-12h6v12zm-2-14v-2h10v2zm17 16h10v2h-10zm2-2v-12h6v12zm-13.962-39.785 25.754 17.785h-51.577zm-26.038 21.785v-2h52v2zm4 20h10v2h-10zm-2 4h48v2h-48zm-2 4h52v2h-52zm54 6h-56v-2h56z" fill="url(#New_Gradient_Swatch_3-2)"/><path d="m32 34a1 1 0 0 0 -1 1v6a1 1 0 0 0 2 0v-6a1 1 0 0 0 -1-1z" fill="url(#New_Gradient_Swatch_3-2)"/><path d="m15 42a1 1 0 0 0 1-1v-6a1 1 0 0 0 -2 0v6a1 1 0 0 0 1 1z" fill="url(#New_Gradient_Swatch_3-4)"/><path d="m49 34a1 1 0 0 0 -1 1v6a1 1 0 0 0 2 0v-6a1 1 0 0 0 -1-1z" fill="url(#New_Gradient_Swatch_3-5)"/><path d="m29 14a3 3 0 1 0 3-3 3 3 0 0 0 -3 3zm4 0a1 1 0 1 1 -1-1 1 1 0 0 1 1 1z" fill="url(#New_Gradient_Swatch_3-2)"/></g></svg>