<svg width="512" height="512" xmlns="http://www.w3.org/2000/svg">

 <g>
  <title>background</title>
  <rect fill="none" id="canvas_background" height="602" width="802" y="-1" x="-1"/>
 </g>
 <g>
  <title>Layer 1</title>
  <g stroke="null" fill="white" id="svg_1">
   <g id="svg_2">
    <path fill="#ed7f36" id="svg_3" d="m391,0l-350,0c-4.142,0 -7.5,3.357 -7.5,7.5l0,440.333c0,4.143 3.358,7.5 7.5,7.5c4.142,0 7.5,-3.357 7.5,-7.5l0,-382.833l15.25,0c4.142,0 7.5,-3.357 7.5,-7.5s-3.358,-7.5 -7.5,-7.5l-15.25,0l0,-35l335,0l0,35l-287.75,0c-4.142,0 -7.5,3.357 -7.5,7.5s3.358,7.5 7.5,7.5l287.75,0l0,6.833c0,4.143 3.358,7.5 7.5,7.5c4.142,0 7.5,-3.357 7.5,-7.5l0,-64.333c0,-4.143 -3.358,-7.5 -7.5,-7.5z"/>
   </g>
  </g>
  <g id="svg_4">
   <g id="svg_5">
    <path stroke="#fff" fill="#ed7f36" id="svg_6" d="m154.631,166l-60,0c-4.142,0 -7.5,3.357 -7.5,7.5l0,84c0,4.143 3.358,7.5 7.5,7.5l60,0c4.142,0 7.5,-3.357 7.5,-7.5l0,-84c0,-4.143 -3.358,-7.5 -7.5,-7.5zm-7.5,84l-45,0l0,-69l45,0l0,69z"/>
   </g>
  </g>
  <g id="svg_7">
   <g id="svg_8">
    <path stroke="#fff" fill="#ed7f36" id="svg_9" d="m247.894,122.924l-60,0c-4.142,0 -7.5,3.357 -7.5,7.5l0,127.076c0,4.143 3.358,7.5 7.5,7.5l60,0c4.142,0 7.5,-3.357 7.5,-7.5l0,-127.076c0,-4.143 -3.358,-7.5 -7.5,-7.5zm-7.5,127.076l-45,0l0,-112.076l45,0l0,112.076z"/>
   </g>
  </g>
  <path stroke="#fff" fill="#ed7f36" id="svg_12" d="m467.65967,457.66667l-3.868,0l0,-25.541c4.649,-1.479 8.027,-5.834 8.027,-10.966l0,-31.986c0,-3.794 -1.854,-7.155 -4.694,-9.252l0,-30.748c0,-6.345 -5.162,-11.507 -11.507,-11.507l-37.941,0c30.934,-16.447 52.048,-49.013 52.048,-86.423c0,-44.478 -29.844,-82.114 -70.558,-93.944l0,-53.05c0,-4.143 -3.358,-7.5 -7.5,-7.5c-4.142,0 -7.5,3.357 -7.5,7.5l0,49.948c-4.015,-0.504 -8.105,-0.766 -12.255,-0.766c-8.226,0 -16.217,1.026 -23.855,2.948l0,-56.623c0,-4.143 -3.358,-7.5 -7.5,-7.5l-60,0c-4.142,0 -7.5,3.357 -7.5,7.5l0,158.41c0,1.832 0.658,3.508 1.749,4.811c3.892,32.407 23.691,59.988 51.341,74.689l-43.14,0c-6.345,0 -11.507,5.162 -11.507,11.507l0,31.986c0,3.794 1.854,7.155 4.695,9.252l0,27.795c-4.649,1.479 -8.028,5.834 -8.028,10.966l0,31.986c0,6.345 5.162,11.507 11.507,11.507l3.868,0l0,25l-234.375,0l0,-17.083c0,-4.143 -3.358,-7.5 -7.5,-7.5c-4.142,0 -7.5,3.357 -7.5,7.5l0,24.584c0,4.143 3.358,7.5 7.5,7.5l425.993,0c6.345,0 11.507,-5.162 11.507,-11.507l0,-31.986c0,-6.345 -5.162,-11.507 -11.507,-11.507zm-10.839,-65l0,25l-14.602,0l0,-6.5c-0.001,-4.143 -3.359,-7.5 -7.501,-7.5c-4.142,0 -7.5,3.357 -7.5,7.5l0,6.5l-15.104,0l0,-6.5c0,-4.143 -3.358,-7.5 -7.5,-7.5c-4.142,0 -7.5,3.357 -7.5,7.5l0,6.5l-15.104,0l0,-6.5c0,-4.143 -3.358,-7.5 -7.5,-7.5c-4.142,0 -7.5,3.357 -7.5,7.5l0,6.5l-15.104,0l0,-6.5c0,-4.143 -3.358,-7.5 -7.5,-7.5c-4.142,0 -7.5,3.357 -7.5,7.5l0,6.5l-15.104,0l0,-6.5c0,-4.143 -3.358,-7.5 -7.5,-7.5c-4.142,0 -7.5,3.357 -7.5,7.5l0,6.5l-15.606,0l0,-25l165.625,0zm-168.764,-285.41l45,0l0,54.232c-18.782,8.162 -34.522,22.05 -45,39.451l0,-93.683zm1.043,143.987c0,-45.663 37.149,-82.813 82.813,-82.813c45.664,0 82.813,37.149 82.813,82.813s-37.149,82.813 -82.813,82.813s-82.813,-37.15 -82.813,-82.813zm-2.6,101.423l165.625,0l0,25l-14.603,0l0,-6.5c0,-4.143 -3.358,-7.5 -7.5,-7.5c-4.142,0 -7.5,3.357 -7.5,7.5l0,6.5l-15.104,0l0,-6.5c0,-4.143 -3.358,-7.5 -7.5,-7.5c-4.142,0 -7.5,3.357 -7.5,7.5l0,6.5l-15.104,0l0,-6.5c0,-4.143 -3.358,-7.5 -7.5,-7.5c-4.142,0 -7.5,3.357 -7.5,7.5l0,6.5l-15.104,0l0,-6.5c0,-4.143 -3.358,-7.5 -7.5,-7.5c-4.142,0 -7.5,3.357 -7.5,7.5l0,6.5l-15.104,0l0,-6.5c0,-4.143 -3.358,-7.5 -7.5,-7.5c-4.142,0 -7.5,3.357 -7.5,7.5l0,6.5l-15.606,0l0,-25zm-3.333,105l0,-25l165.625,0l0,25l-14.603,0l0,-6.5c0,-4.143 -3.358,-7.5 -7.5,-7.5c-4.142,0 -7.5,3.357 -7.5,7.5l0,6.5l-15.104,0l0,-6.5c0,-4.143 -3.358,-7.5 -7.5,-7.5c-4.142,0 -7.5,3.357 -7.5,7.5l0,6.5l-15.104,0l0,-6.5c0,-4.143 -3.358,-7.5 -7.5,-7.5c-4.142,0 -7.5,3.357 -7.5,7.5l0,6.5l-15.104,0l0,-6.5c0,-4.143 -3.358,-7.5 -7.5,-7.5c-4.142,0 -7.5,3.357 -7.5,7.5l0,6.5l-15.104,0l0,-6.5c0,-4.143 -3.358,-7.5 -7.5,-7.5c-4.142,0 -7.5,3.357 -7.5,7.5l0,6.5l-3.724,0l-11.882,0zm181,40l-14.603,0l0,-6.5c0,-4.143 -3.358,-7.5 -7.5,-7.5c-4.142,0 -7.5,3.357 -7.5,7.5l0,6.5l-15.104,0l0,-6.5c0,-4.143 -3.358,-7.5 -7.5,-7.5c-4.142,0 -7.5,3.357 -7.5,7.5l0,6.5l-12.793,0l-2.311,0l0,-6.5c0,-4.143 -3.358,-7.5 -7.5,-7.5c-4.142,0 -7.5,3.357 -7.5,7.5l0,6.5l-15.104,0l0,-6.5c0,-4.143 -3.358,-7.5 -7.5,-7.5c-4.142,0 -7.5,3.357 -7.5,7.5l0,6.5l-15.105,0l0,-6.5c0,-4.143 -3.358,-7.5 -7.5,-7.5c-4.142,0 -7.5,3.357 -7.5,7.5l0,6.5l-15.606,0l0,-25l165.626,0l0,25z"/>
  <g id="svg_13">
   <g id="svg_14">
    <path stroke="#fff" fill="#ed7f36" id="svg_15" d="m371.245,242.755c-3.193,0 -5.791,-2.508 -5.791,-5.591c0,-3.082 2.598,-5.59 5.791,-5.59s5.79,2.508 5.79,5.59c0,4.143 3.358,7.5 7.5,7.5c4.142,0 7.5,-3.357 7.5,-7.5c0,-8.742 -5.538,-16.209 -13.315,-19.191c-0.222,-3.944 -3.48,-7.075 -7.479,-7.075c-3.999,0 -7.258,3.133 -7.479,7.077c-7.773,2.984 -13.308,10.449 -13.308,19.188c0,11.354 9.327,20.591 20.791,20.591c3.193,0 5.79,2.508 5.79,5.59c0,3.074 -2.582,5.574 -5.762,5.589c-0.01,0 -0.021,-0.001 -0.031,-0.001c-0.009,0 -0.018,0.001 -0.028,0.001c-3.178,-0.017 -5.759,-2.517 -5.759,-5.588c0,-4.143 -3.358,-7.5 -7.5,-7.5c-4.142,0 -7.5,3.357 -7.5,7.5c0,8.731 5.525,16.191 13.287,19.18l0,0.232c0,4.143 3.358,7.5 7.5,7.5c4.142,0 7.5,-3.357 7.5,-7.5l0,-0.229c7.765,-2.987 13.293,-10.449 13.293,-19.183c0,-11.354 -9.326,-20.59 -20.79,-20.59z"/>
   </g>
  </g>
  <g id="svg_16">
   <g id="svg_17">
    <path stroke="#fff" fill="#ed7f36" id="svg_18" d="m439.014,248.854c-0.279,-11.091 -3.216,-21.533 -8.225,-30.696c-0.163,-0.535 -0.383,-1.062 -0.675,-1.567c-0.299,-0.518 -0.655,-0.98 -1.048,-1.396c-5.606,-9.127 -13.31,-16.831 -22.437,-22.437c-0.417,-0.393 -0.879,-0.749 -1.396,-1.048c-0.505,-0.292 -1.031,-0.511 -1.566,-0.674c-9.161,-5.008 -19.601,-7.944 -30.69,-8.225c-0.557,-0.132 -1.135,-0.209 -1.732,-0.209s-1.175,0.077 -1.732,0.209c-11.089,0.28 -21.529,3.217 -30.69,8.225c-0.535,0.163 -1.061,0.382 -1.566,0.674c-0.518,0.299 -0.981,0.655 -1.397,1.049c-9.126,5.605 -16.829,13.308 -22.435,22.434c-0.393,0.417 -0.75,0.88 -1.049,1.398c-0.292,0.506 -0.512,1.033 -0.675,1.569c-5.008,9.161 -7.944,19.602 -8.224,30.692c-0.131,0.556 -0.208,1.132 -0.208,1.728c0,0.595 0.077,1.172 0.208,1.727c0.279,11.091 3.216,21.533 8.225,30.696c0.163,0.535 0.383,1.061 0.674,1.565c0.292,0.506 0.643,0.953 1.025,1.362c5.609,9.144 13.323,16.862 22.465,22.475c0.415,0.391 0.876,0.746 1.392,1.043c0.493,0.283 1.008,0.491 1.53,0.654c9.172,5.021 19.627,7.966 30.734,8.245c0.554,0.131 1.129,0.207 1.723,0.207s1.169,-0.076 1.723,-0.207c11.107,-0.279 21.562,-3.224 30.734,-8.245c0.522,-0.162 1.037,-0.371 1.531,-0.655c0.515,-0.297 0.976,-0.651 1.391,-1.042c9.143,-5.614 16.858,-13.333 22.467,-22.478c0.381,-0.409 0.732,-0.855 1.023,-1.36c0.291,-0.504 0.51,-1.03 0.674,-1.564c5.01,-9.163 7.947,-19.607 8.226,-30.699c0.131,-0.555 0.207,-1.13 0.207,-1.725c0,-0.595 -0.076,-1.171 -0.207,-1.725zm-18.878,21.662c-3.135,-0.732 -6.506,0.621 -8.198,3.553c-1.688,2.924 -1.183,6.511 1.004,8.86c-2.714,3.49 -5.854,6.63 -9.344,9.344c-2.349,-2.187 -5.936,-2.692 -8.86,-1.005c-2.931,1.692 -4.286,5.064 -3.553,8.199c-4.031,1.65 -8.31,2.812 -12.764,3.421c-0.933,-3.081 -3.792,-5.324 -7.177,-5.324s-6.244,2.243 -7.177,5.324c-4.454,-0.608 -8.733,-1.771 -12.765,-3.421c0.732,-3.135 -0.622,-6.507 -3.553,-8.199c-2.926,-1.688 -6.512,-1.183 -8.86,1.004c-3.49,-2.714 -6.629,-5.854 -9.343,-9.344c2.188,-2.345 2.694,-5.933 1.005,-8.857c-1.693,-2.931 -5.064,-4.285 -8.198,-3.553c-1.65,-4.031 -2.812,-8.31 -3.42,-12.764c3.08,-0.933 5.323,-3.791 5.323,-7.177c0,-3.385 -2.243,-6.243 -5.323,-7.177c0.609,-4.457 1.772,-8.738 3.424,-12.772c0.56,0.131 1.127,0.206 1.692,0.206c2.592,0 5.113,-1.345 6.502,-3.751c1.688,-2.923 1.183,-6.51 -1.003,-8.859c2.716,-3.492 5.858,-6.634 9.351,-9.35c1.399,1.302 3.232,2.015 5.108,2.015c1.272,0 2.562,-0.324 3.743,-1.006c2.931,-1.692 4.285,-5.063 3.554,-8.197c4.032,-1.65 8.31,-2.813 12.764,-3.421c0.933,3.08 3.792,5.323 7.176,5.323c3.384,0 6.243,-2.243 7.176,-5.323c4.454,0.608 8.733,1.77 12.764,3.42c-0.732,3.134 0.623,6.506 3.554,8.197c1.182,0.682 2.471,1.006 3.743,1.006c1.876,0 3.709,-0.714 5.108,-2.015c3.493,2.715 6.635,5.857 9.351,9.349c-2.187,2.348 -2.692,5.936 -1.004,8.859c1.389,2.406 3.91,3.751 6.502,3.751c0.565,0 1.132,-0.075 1.693,-0.206c1.652,4.034 2.815,8.315 3.424,12.772c-3.08,0.933 -5.323,3.792 -5.323,7.177c0,3.385 2.243,6.244 5.324,7.177c-0.608,4.454 -1.77,8.732 -3.42,12.764z"/>
   </g>
  </g>
  <g id="svg_19">
   <g id="svg_20">
    <path stroke="#fff" fill="#ed7f36" id="svg_21" d="m256.427,311.557c-2.619,-2.619 -6.347,-3.728 -9.971,-2.96l-39.389,8.322c-3.92,0.828 -7.065,3.729 -8.206,7.57s-0.089,7.988 2.745,10.822l11.238,11.238l-46.949,46.95l-51.565,0c-1.989,0 -3.897,0.79 -5.303,2.196l-36,36c-2.929,2.931 -2.929,7.679 0,10.609c1.464,1.464 3.384,2.196 5.303,2.196s3.839,-0.732 5.303,-2.196l33.803,-33.804l51.564,0c1.989,0 3.897,-0.79 5.303,-2.196l49.147,-49.147l9.223,9.223c2.078,2.077 4.86,3.196 7.712,3.196c1.038,0 2.085,-0.147 3.11,-0.452c3.842,-1.141 6.742,-4.285 7.57,-8.205l8.323,-39.39c0.765,-3.625 -0.342,-7.353 -2.961,-9.972zm-18.48,38.883l-9.187,-9.187c-0.002,-0.002 -0.004,-0.005 -0.007,-0.007c-0.003,-0.002 -0.005,-0.004 -0.007,-0.007l-11.203,-11.202l25.87,-5.466l-5.466,25.869z"/>
   </g>
  </g>
  <g id="svg_22">
   <g id="svg_23">
    <path stroke="#fff" fill="#ed7f36" id="svg_24" d="m252.125,457l-173.792,0c-4.142,0 -7.5,3.357 -7.5,7.5s3.358,7.5 7.5,7.5l173.792,0c4.142,0 7.5,-3.357 7.5,-7.5s-3.358,-7.5 -7.5,-7.5z"/>
   </g>
  </g>
  <g id="svg_25"/>
  <g id="svg_26"/>
  <g id="svg_27"/>
  <g id="svg_28"/>
  <g id="svg_29"/>
  <g id="svg_30"/>
  <g id="svg_31"/>
  <g id="svg_32"/>
  <g id="svg_33"/>
  <g id="svg_34"/>
  <g id="svg_35"/>
  <g id="svg_36"/>
  <g id="svg_37"/>
  <g id="svg_38"/>
  <g id="svg_39"/>
  <defs>
   <style type="text/css">
    <![CDATA[
    .fil1 {fill:none}
    .fil0 {fill:#ED7F36}
   ]]>
   </style>
  </defs>
  <g stroke="null" transform="matrix(0.12840828193713788,0,0,0.12840828193713788,-138.21697606201718,388.96955654600106) " id="svg_55">
   <title stroke="null" transform="translate(180.0902099609375,-131.41717529296875) translate(2832.770263671875,-2180.551513671875) translate(1137.442138671875,-344.1144104003906) translate(-320.48260498046875,104.69098663330078) translate(-557.6323852539062,0) translate(0,-52.048465728759766) ">background</title>
   <rect stroke="null" x="3271.18762" y="-2604.44058" width="359" height="358" id="svg_53" fill="none"/>
  </g>
  <metadata stroke="null" transform="translate(-180.0902099609375,-63.27493667602539) translate(180.0902099609375,-131.41717529296875) translate(2832.770263671875,-2180.551513671875) translate(1137.442138671875,-344.1144104003906) translate(-320.48260498046875,104.69098663330078) translate(-557.6323852539062,0) translate(0,-52.048465728759766) matrix(0.12840828193713788,0,0,0.12840828193713788,-2833.263471900157,2713.256713968904) " id="svg_52"/>
  <path fill="#ed7f36" stroke="null" class="fil0" d="m368.92895,29.68021c0.59145,0.25989 1.09098,0.6904 1.43159,1.22932c0.47505,-0.53182 1.16376,-0.87699 1.93704,-0.90068c1.14175,-0.03489 2.14315,0.64054 2.56384,1.61908c0.29485,-0.55252 0.86384,-0.93688 1.52546,-0.95778c0.98909,-0.03131 1.8209,0.7615 1.85175,1.76491c0.03079,1.00328 -0.75075,1.84713 -1.73984,1.87838c-0.64893,0.02051 -1.23029,-0.31405 -1.56205,-0.82972c-0.2869,0.8499 -1.00211,1.51531 -1.89889,1.7375c0.4714,0.21744 0.85693,0.59028 1.08505,1.05256c0.28365,-0.41424 0.74125,-0.69099 1.26291,-0.70805c0.88949,-0.02904 1.63763,0.70785 1.6653,1.64056c0.0278,0.93265 -0.67511,1.71706 -1.56459,1.74616c-0.56313,0.01836 -1.06956,-0.2705 -1.37247,-0.72133c-0.36047,0.71449 -1.09918,1.21786 -1.96379,1.24442c-0.85062,0.02604 -1.60912,-0.41594 -2.01907,-1.08824c-0.23567,0.61183 -0.69665,1.11877 -1.28543,1.41792c0.53468,0.36385 0.89385,0.96364 0.91559,1.64948c0.03639,1.14709 -0.88512,2.11177 -2.05142,2.14758c-1.1663,0.03568 -2.14719,-0.87074 -2.18351,-2.01783c-0.02285,-0.72302 0.33501,-1.37365 0.89469,-1.76478c-0.58227,-0.28697 -1.04658,-0.77679 -1.29351,-1.37671c-0.41769,0.63878 -1.1564,1.05419 -1.98183,1.02887c-0.86091,-0.02637 -1.59708,-0.52544 -1.95924,-1.23511c-0.3024,0.4451 -0.8111,0.73083 -1.37697,0.71267c-0.88949,-0.02838 -1.59239,-0.79639 -1.56459,-1.70944c0.02767,-0.91312 0.77582,-1.63464 1.6653,-1.60619c0.5117,0.01641 0.96188,0.27727 1.2465,0.66996c0.2259,-0.47785 0.61847,-0.86344 1.10133,-1.08609c-0.87249,-0.21633 -1.57312,-0.85218 -1.87447,-1.66921c-0.33846,0.54744 -0.93981,0.90387 -1.61172,0.88219c-1.01435,-0.03268 -1.81582,-0.91383 -1.78424,-1.96152c0.0317,-1.04781 0.88467,-1.87571 1.89895,-1.8431c0.67146,0.02168 1.24982,0.41489 1.55482,0.98245c0.42466,-0.97002 1.42156,-1.63802 2.55707,-1.60326c0.7572,0.02318 1.43328,0.35461 1.90716,0.86774c0.34191,-0.52505 0.83688,-0.94638 1.42449,-1.20035c-0.43,-0.27147 -0.76879,-0.67283 -0.95667,-1.14905c-0.33475,0.77718 -1.13069,1.31349 -2.03762,1.28576c-1.17756,-0.03613 -2.10799,-1.01012 -2.07128,-2.16828c0.03665,-1.15816 1.02698,-2.0733 2.20454,-2.03716c0.8445,0.02585 1.56218,0.53449 1.88684,1.24722c0.33,-0.88975 1.18531,-1.54024 2.20402,-1.57143c1.08414,-0.0332 2.02824,0.6449 2.36729,1.60404c0.31828,-0.72784 1.04371,-1.25008 1.8996,-1.27625c1.17756,-0.03613 2.16789,0.87907 2.20461,2.03723c0.03672,1.15816 -0.89378,2.13221 -2.07134,2.16828c-0.91969,0.02819 -1.72552,-0.52374 -2.05162,-1.31883c-0.18658,0.49119 -0.53351,0.90791 -0.97959,1.18609zm-5.02644,5.43202c0.58435,0.18274 1.0648,0.59197 1.33804,1.11942c0.19029,-0.35552 0.46059,-0.6641 0.78799,-0.90185c-0.42427,-0.23847 -0.7891,-0.56944 -1.06559,-0.96526c-0.2843,0.32785 -0.64815,0.58663 -1.06044,0.74769zm-0.00664,-12.70207c-0.74209,-0.02266 -1.36616,0.55395 -1.38927,1.28387c-0.02311,0.72986 0.56326,1.3437 1.30529,1.36636c0.74209,0.02279 1.36616,-0.55395 1.38927,-1.28381c0.02311,-0.72979 -0.56326,-1.34363 -1.30529,-1.36642zm-0.04785,17.22442c-0.87191,-0.02682 -1.60515,0.65089 -1.63236,1.50841c-0.02721,0.85759 0.66182,1.57885 1.53373,1.60554c0.87184,0.02669 1.60521,-0.65089 1.6323,-1.50854c0.02721,-0.85752 -0.66169,-1.57872 -1.53367,-1.60541zm-4.25739,-13.19664c-0.74913,-0.02292 -1.37918,0.55929 -1.40249,1.29611c-0.02337,0.73682 0.5686,1.35659 1.31772,1.37951c0.74919,0.02298 1.37925,-0.55922 1.40262,-1.29611c0.02337,-0.73689 -0.56866,-1.35653 -1.31785,-1.37951zm10.71119,7.89346c-0.27883,0.41034 -0.65245,0.75453 -1.09084,1.00048c0.34354,0.2498 0.62511,0.57817 0.81657,0.95895c0.26757,-0.55428 0.76117,-0.98597 1.36603,-1.17502c-0.42759,-0.16705 -0.8029,-0.43905 -1.09176,-0.78441zm1.0984,-11.91753c0.74203,-0.02279 1.36616,0.55395 1.38927,1.28381c0.02311,0.72979 -0.56326,1.34363 -1.30529,1.36642c-0.74209,0.02272 -1.36616,-0.55395 -1.38927,-1.28381c-0.02311,-0.72992 0.56326,-1.34377 1.30529,-1.36642zm0.04785,17.22429c0.87191,-0.02669 1.60515,0.65089 1.63236,1.50854c0.02721,0.85752 -0.66182,1.57872 -1.53373,1.60541c-0.87184,0.02682 -1.60521,-0.65089 -1.6323,-1.50841c-0.02721,-0.85759 0.66169,-1.57885 1.53367,-1.60554zm4.25739,-13.19664c0.74906,-0.02292 1.37912,0.55935 1.40249,1.29618c0.02337,0.73682 -0.56866,1.35653 -1.31779,1.37951c-0.74919,0.02298 -1.37925,-0.55929 -1.40255,-1.29618c-0.02337,-0.73676 0.5686,-1.35646 1.31785,-1.37951zm-8.12125,-4.8812c0.95784,-0.02936 1.76341,0.71501 1.79316,1.6571c0.02988,0.94209 -0.72699,1.73431 -1.68477,1.76367c-0.95784,0.02943 -1.76341,-0.71501 -1.79323,-1.6571c-0.02988,-0.94209 0.72699,-1.73431 1.68483,-1.76367z" id="svg_51"/>
 </g>
</svg>