<svg width="357" height="356" xmlns="http://www.w3.org/2000/svg">
 <defs>
  <style type="text/css">
   <![CDATA[
    .fil1 {fill:none}
    .fil0 {fill:#ED7F36}
   ]]>
  </style>
 </defs>
 <g>
  <title>background</title>
  <rect fill="none" id="canvas_background" height="358" width="359" y="-1" x="-1"/>
 </g>
 <g>
  <title>Layer 1</title>
  <metadata id="CorelCorpID_0Corel-Layer"/>
  <g id="_1749531648">
   <path id="svg_1" d="m196.92107,134.33362c9.085,3.992 16.758,10.605 21.99,18.883c7.297,-8.169 17.876,-13.471 29.754,-13.835c17.538,-0.536 32.92,9.839 39.382,24.87c4.529,-8.487 13.269,-14.391 23.432,-14.712c15.193,-0.481 27.97,11.697 28.444,27.11c0.473,15.411 -11.532,28.373 -26.725,28.853c-9.968,0.315 -18.898,-4.824 -23.994,-12.745c-4.407,13.055 -15.393,23.276 -29.168,26.689c7.241,3.34 13.163,9.067 16.667,16.168c4.357,-6.363 11.386,-10.614 19.399,-10.876c13.663,-0.446 25.155,10.873 25.58,25.2c0.427,14.326 -10.37,26.375 -24.033,26.822c-8.65,0.282 -16.429,-4.155 -21.082,-11.08c-5.537,10.975 -16.884,18.707 -30.165,19.115c-13.066,0.4 -24.717,-6.389 -31.014,-16.716c-3.62,9.398 -10.701,17.185 -19.745,21.78c8.213,5.589 13.73,14.802 14.064,25.337c0.559,17.62 -13.596,32.438 -31.511,32.988c-17.915,0.548 -32.982,-13.375 -33.54,-30.995c-0.351,-11.106 5.146,-21.1 13.743,-27.108c-8.944,-4.408 -16.076,-11.932 -19.869,-21.147c-6.416,9.812 -17.763,16.193 -30.442,15.804c-13.224,-0.405 -24.532,-8.071 -30.095,-18.972c-4.645,6.837 -12.459,11.226 -21.151,10.947c-13.663,-0.436 -24.46,-12.233 -24.033,-26.258c0.425,-14.026 11.917,-25.109 25.58,-24.672c7.86,0.252 14.775,4.259 19.147,10.291c3.47,-7.34 9.5,-13.263 16.917,-16.683c-13.402,-3.323 -24.164,-13.09 -28.793,-25.64c-5.199,8.409 -14.436,13.884 -24.757,13.551c-15.581,-0.502 -27.892,-14.037 -27.407,-30.13c0.487,-16.095 13.589,-28.812 29.169,-28.311c10.314,0.333 19.198,6.373 23.883,15.091c6.523,-14.9 21.836,-25.161 39.278,-24.627c11.631,0.356 22.016,5.447 29.295,13.329c5.252,-8.065 12.855,-14.537 21.881,-18.438c-6.605,-4.17 -11.809,-10.335 -14.695,-17.65c-5.142,11.938 -17.368,20.176 -31.299,19.75c-18.088,-0.555 -32.38,-15.516 -31.816,-33.306c0.563,-17.79 15.775,-31.847 33.863,-31.292c12.972,0.397 23.996,8.21 28.983,19.158c5.069,-13.667 18.207,-23.659 33.855,-24.138c16.653,-0.51 31.155,9.906 36.363,24.639c4.889,-11.18 16.032,-19.202 29.179,-19.604c18.088,-0.555 33.3,13.503 33.864,31.293c0.564,17.79 -13.729,32.752 -31.817,33.306c-14.127,0.433 -26.505,-8.045 -31.514,-20.258c-2.866,7.545 -8.195,13.946 -15.047,18.219zm-77.209,83.439c8.976,2.807 16.356,9.093 20.553,17.195c2.923,-5.461 7.075,-10.201 12.104,-13.853c-6.517,-3.663 -12.121,-8.747 -16.368,-14.827c-4.367,5.036 -9.956,9.011 -16.289,11.485zm-0.102,-195.111c-11.399,-0.348 -20.985,8.509 -21.34,19.721c-0.355,11.211 8.652,20.64 20.05,20.988c11.399,0.35 20.985,-8.509 21.34,-19.72c0.355,-11.21 -8.652,-20.639 -20.05,-20.989zm-0.735,264.577c-13.393,-0.412 -24.656,9.998 -25.074,23.17c-0.418,13.173 10.166,24.252 23.559,24.662c13.392,0.41 24.657,-9.998 25.073,-23.172c0.418,-13.172 -10.164,-24.25 -23.558,-24.66zm-65.396,-202.708c-11.507,-0.352 -21.185,8.591 -21.543,19.909c-0.359,11.318 8.734,20.838 20.241,21.19c11.508,0.353 21.186,-8.59 21.545,-19.909c0.359,-11.319 -8.735,-20.837 -20.243,-21.19zm164.53,121.248c-4.283,6.303 -10.022,11.59 -16.756,15.368c5.277,3.837 9.602,8.881 12.543,14.73c4.11,-8.514 11.692,-15.145 20.983,-18.049c-6.568,-2.566 -12.333,-6.744 -16.77,-12.049zm16.872,-183.06c11.398,-0.35 20.985,8.509 21.34,19.72c0.355,11.21 -8.652,20.639 -20.05,20.989c-11.399,0.349 -20.985,-8.509 -21.34,-19.72c-0.355,-11.212 8.652,-20.641 20.05,-20.989zm0.735,264.575c13.393,-0.41 24.656,9.998 25.074,23.172c0.418,13.172 -10.166,24.25 -23.559,24.66c-13.392,0.412 -24.657,-9.998 -25.073,-23.17c-0.418,-13.173 10.164,-24.252 23.558,-24.662zm65.396,-202.708c11.506,-0.352 21.184,8.592 21.543,19.91c0.359,11.318 -8.735,20.837 -20.242,21.19c-11.508,0.353 -21.186,-8.591 -21.544,-19.91c-0.359,-11.317 8.734,-20.836 20.243,-21.19zm-124.747,-74.978c14.713,-0.451 27.087,10.983 27.544,25.454c0.459,14.471 -11.167,26.64 -25.879,27.091c-14.713,0.452 -27.087,-10.983 -27.545,-25.454c-0.459,-14.471 11.167,-26.64 25.88,-27.091z" class="fil0"/>
   <path id="svg_2" d="m612.43607,255.99462l-7.337,28.968c-18.932,9.637 -41.112,14.455 -66.541,14.455c-17.811,0 -34.447,-2.633 -49.85,-7.956c-15.459,-5.323 -28.957,-12.999 -40.439,-22.972c-11.483,-10.03 -20.388,-22.076 -26.717,-36.083c-6.33,-14.008 -9.466,-29.472 -9.466,-46.337c0,-21.348 3.472,-40.117 10.362,-56.31c6.889,-16.249 16.411,-29.584 28.677,-40.118c12.211,-10.477 26.381,-18.321 42.456,-23.532c16.131,-5.155 33.551,-7.732 52.314,-7.732c11.483,0 23.469,1.457 35.959,4.37c12.491,2.914 23.357,6.948 32.598,12.159c-1.288,5.098 -2.632,11.037 -4.088,17.873c-1.457,6.836 -2.689,12.439 -3.641,16.697l-4.705,0c-6.329,-9.301 -14.563,-16.809 -24.701,-22.412c-10.194,-5.659 -20.5,-8.46 -31.086,-8.46c-13.386,0 -25.092,2.913 -35.062,8.684c-9.97,5.827 -18.204,13.672 -24.645,23.701c-6.385,9.973 -11.146,20.955 -14.115,33.001c-3.024,12.047 -4.537,24.486 -4.537,37.428c0,19.219 3.081,36.252 9.298,50.988c6.217,14.791 15.347,26.278 27.445,34.458c12.043,8.236 26.494,12.327 43.241,12.327c10.138,0 20.78,-2.354 31.926,-7.116c11.202,-4.707 20.612,-10.758 28.229,-18.098l4.425,2.017zm44.136,-191.51l86.649,0c19.268,0 35.231,3.978 47.833,11.878c12.659,7.957 18.932,21.012 18.932,39.165c0,9.862 -2.521,18.602 -7.562,26.278c-5.041,7.62 -11.818,13.728 -20.276,18.266c-8.457,4.538 -17.531,7.508 -27.277,8.853l0,3.081c16.299,1.681 30.47,6.668 42.512,15.016c12.043,8.349 18.036,21.852 18.036,40.454c0,14.624 -3.865,26.838 -11.594,36.812c-7.73,9.917 -17.812,17.257 -30.19,21.963c-12.379,4.763 -25.541,7.116 -39.544,7.116l-77.519,0l0,-228.882zm50.018,98.781l10.754,0c12.378,0 21.788,-2.802 28.174,-8.461c9.633,-8.012 14.45,-19.666 14.45,-34.906c0,-11.823 -3.192,-20.956 -9.522,-27.343c-6.329,-6.387 -15.122,-9.581 -26.381,-9.581c-4.592,0 -10.418,0.336 -17.475,1.008l0,79.283zm0,110.547l17.083,0c6.329,0 12.547,-1.793 18.708,-5.323c6.161,-3.586 11.202,-8.685 15.067,-15.296c3.921,-6.668 5.881,-14.456 5.881,-23.365c0,-31.601 -16.019,-47.401 -48.057,-47.401c-3.809,0 -6.722,0.112 -8.682,0.336l0,91.049zm156.998,-209.328c13.947,1.065 22.348,1.625 25.205,1.625c2.8,0 11.202,-0.56 25.149,-1.625l0,230.507c-13.947,-1.065 -22.349,-1.625 -25.149,-1.625c-2.857,0 -11.258,0.56 -25.205,1.625l0,-230.507zm200.91,230.171c-2.8,-0.112 -7.001,-0.336 -12.714,-0.729c-5.657,-0.392 -9.858,-0.56 -12.434,-0.56c-2.745,0 -6.946,0.168 -12.603,0.56c-5.601,0.393 -9.802,0.617 -12.602,0.729l0,-206.246c-18.372,0 -39.264,1.569 -62.564,4.762c1.12,-7.956 1.624,-12.831 1.624,-14.511c0,-1.569 -0.504,-6.332 -1.624,-14.176l173.017,0c-0.336,2.073 -0.616,3.866 -0.952,5.379c-0.28,1.457 -0.56,3.026 -0.728,4.706c-0.168,1.681 -0.28,3.026 -0.28,4.091c0,1.12 0.112,2.521 0.28,4.258c0.168,1.737 0.448,3.362 0.728,4.874c0.336,1.513 0.616,3.306 0.952,5.379c-26.325,-3.193 -46.377,-4.762 -60.1,-4.762l0,206.246zm89.562,-69.757c-1.961,5.827 -4.705,13.671 -8.29,23.476c-3.529,9.861 -6.553,18.49 -9.074,25.942c-2.52,7.508 -4.593,14.175 -6.161,20.003c-1.456,-0.112 -3.977,-0.281 -7.617,-0.561c-3.641,-0.28 -6.33,-0.392 -8.122,-0.392c-1.848,0 -4.481,0.112 -8.01,0.392c-3.472,0.28 -6.217,0.449 -8.177,0.561l96.17,-232.917c4.313,0.673 8.57,1.009 12.715,1.009c4.145,0 8.401,-0.336 12.826,-1.009l93.762,233.253c-3.361,-0.112 -8.233,-0.336 -14.731,-0.729c-6.497,-0.392 -11.314,-0.56 -14.562,-0.56c-3.249,0 -8.01,0.168 -14.395,0.56c-6.385,0.393 -11.09,0.617 -14.171,0.729c-10.138,-32.385 -18.147,-55.638 -23.86,-69.757l-78.303,0zm70.573,-20.563l-29.854,-78.386l-31.59,78.386l61.444,0zm122.72,-139.851c3.696,0.336 7.001,0.616 9.801,0.953c2.801,0.28 5.601,0.504 8.402,0.728c2.745,0.168 5.097,0.28 6.945,0.28c1.849,0 4.201,-0.112 7.114,-0.28c2.912,-0.224 5.713,-0.448 8.457,-0.728c2.689,-0.337 5.937,-0.617 9.634,-0.953l0,91.105c27.893,1.12 45.033,1.624 51.418,1.624c5.153,0 22.292,-0.504 51.474,-1.624l0,-91.105c3.697,0.336 6.945,0.616 9.634,0.953c2.688,0.28 5.489,0.504 8.289,0.728c2.801,0.168 5.097,0.28 6.946,0.28c2.016,0 4.48,-0.112 7.505,-0.336c2.969,-0.224 5.769,-0.448 8.402,-0.728c2.688,-0.281 5.881,-0.561 9.577,-0.897l0,230.171c-2.688,-0.112 -6.833,-0.336 -12.49,-0.729c-5.657,-0.392 -10.026,-0.56 -12.994,-0.56c-2.633,0 -6.722,0.168 -12.323,0.56c-5.601,0.393 -9.746,0.617 -12.546,0.729l0,-112.116c-23.301,-0.896 -40.496,-1.345 -51.474,-1.345c-11.93,0 -29.07,0.449 -51.418,1.345l0,112.116c-2.912,-0.112 -7.113,-0.336 -12.658,-0.729c-5.545,-0.392 -9.746,-0.56 -12.547,-0.56c-2.8,0 -6.945,0.168 -12.546,0.56c-5.545,0.393 -9.746,0.617 -12.602,0.729l0,-230.171zm292.319,160.414c-1.96,5.827 -4.704,13.671 -8.289,23.476c-3.529,9.861 -6.553,18.49 -9.074,25.942c-2.52,7.508 -4.593,14.175 -6.161,20.003c-1.456,-0.112 -3.977,-0.281 -7.618,-0.561c-3.64,-0.28 -6.329,-0.392 -8.121,-0.392c-1.848,0 -4.481,0.112 -8.01,0.392c-3.472,0.28 -6.217,0.449 -8.177,0.561l96.17,-232.917c4.313,0.673 8.57,1.009 12.715,1.009c4.144,0 8.401,-0.336 12.826,-1.009l93.762,233.253c-3.361,-0.112 -8.234,-0.336 -14.731,-0.729c-6.497,-0.392 -11.314,-0.56 -14.563,-0.56c-3.248,0 -8.009,0.168 -14.394,0.56c-6.386,0.393 -11.09,0.617 -14.171,0.729c-10.138,-32.385 -18.148,-55.638 -23.861,-69.757l-78.303,0zm70.574,-20.563l-29.854,-78.386l-31.59,78.386l61.444,0zm122.719,-139.851c1.065,0.056 4.649,0.392 10.866,1.009c6.274,0.616 10.979,0.952 14.283,0.952c1.848,0 4.201,-0.112 7.114,-0.28c2.912,-0.224 5.713,-0.448 8.457,-0.728c2.689,-0.337 5.937,-0.617 9.634,-0.953l0,105.168c29.798,-34.178 58.923,-69.253 87.433,-105.168c2.52,0.336 4.761,0.616 6.721,0.953c1.96,0.28 3.977,0.504 6.105,0.728c2.129,0.168 3.921,0.28 5.377,0.28c2.185,0 5.545,-0.336 10.138,-0.952c4.593,-0.617 7.169,-0.953 7.674,-1.009l0,2.633c-15.347,14.624 -31.366,30.985 -48.114,49.251c-16.747,18.209 -29.741,32.833 -38.983,43.871l93.818,130.045l0,4.371c-2.969,-0.112 -7.786,-0.336 -14.563,-0.729c-6.721,-0.392 -11.426,-0.56 -14.003,-0.56c-2.968,0 -7.785,0.168 -14.506,0.56c-6.722,0.393 -11.427,0.617 -14.171,0.729l-72.926,-106.513l0,106.513c-2.913,-0.112 -7.113,-0.336 -12.658,-0.729c-5.546,-0.392 -9.746,-0.56 -12.547,-0.56c-2.744,0 -6.833,0.168 -12.322,0.56c-5.489,0.393 -9.746,0.617 -12.827,0.729l0,-230.171z" class="fil0"/>
  </g>
  <rect id="svg_3" height="527.692" width="1999.992" y="452.53338" x="-23.09485" class="fil1"/>
 </g>
</svg>