<svg width="64" height="64" xmlns="http://www.w3.org/2000/svg">

 <g>
  <title>background</title>
  <rect fill="none" id="canvas_background" height="602" width="802" y="-1" x="-1"/>
 </g>
 <g>
  <title>Layer 1</title>
  <g id="Bank">
   <path id="svg_1" fill="#ff7f00" d="m48.737,18.177l-16.137,-11.141a1,1 0 0 0 -1.136,0l-16.172,11.14a1,1 0 0 0 0.568,1.824l32.308,0a1,1 0 0 0 0.569,-1.823zm-29.662,-0.177l12.96,-8.926l12.925,8.926l-25.885,0z"/>
   <path id="svg_2" fill="#ff7f00" d="m61,56l-1,0l0,-3a1,1 0 0 0 -1,-1l-1,0l0,-3a1,1 0 0 0 -1,-1l-1,0l0,-3a1,1 0 0 0 -1,-1l-1,0l0,-12l1,0a1,1 0 0 0 1,-1l0,-3l3,0a1,1 0 0 0 1,-1l0,-3l1,0a1,1 0 0 0 0.568,-1.823l-28.961,-20a1,1 0 0 0 -1.136,0l-29.038,20a1,1 0 0 0 0.567,1.823l1,0l0,3a1,1 0 0 0 1,1l3,0l0,3a1,1 0 0 0 1,1l1,0l0,12l-1,0a1,1 0 0 0 -1,1l0,3l-1,0a1,1 0 0 0 -1,1l0,3l-1,0a1,1 0 0 0 -1,1l0,3l-1,0a1,1 0 0 0 -1,1l0,4a1,1 0 0 0 1,1l58,0a1,1 0 0 0 1,-1l0,-4a1,1 0 0 0 -1,-1zm-7,-26l-10,0l0,-2l10,0l0,2zm-16,14l-1,0l0,-12l1,0a1,1 0 0 0 1,-1l0,-3l3,0l0,3a1,1 0 0 0 1,1l1,0l0,12l-1,0a1,1 0 0 0 -1,1l0,3l-3,0l0,-3a1,1 0 0 0 -1,-1zm-17,0l-1,0l0,-12l1,0a1,1 0 0 0 1,-1l0,-3l3,0l0,3a1,1 0 0 0 1,1l1,0l0,12l-1,0a1,1 0 0 0 -1,1l0,3l-3,0l0,-3a1,1 0 0 0 -1,-1zm-11,-14l0,-2l10,0l0,2l-10,0zm8,2l0,12l-6,0l0,-12l6,0zm9,14l10,0l0,2l-10,0l0,-2zm2,-2l0,-12l6,0l0,12l-6,0zm-2,-14l0,-2l10,0l0,2l-10,0zm17,16l10,0l0,2l-10,0l0,-2zm2,-2l0,-12l6,0l0,12l-6,0zm-13.962,-39.785l25.754,17.785l-51.577,0l25.823,-17.785zm-26.038,21.785l0,-2l52,0l0,2l-52,0zm4,20l10,0l0,2l-10,0l0,-2zm-2,4l48,0l0,2l-48,0l0,-2zm-2,4l52,0l0,2l-52,0l0,-2zm54,6l-56,0l0,-2l56,0l0,2z"/>
   <path id="svg_3" fill="#ff7f00" d="m32,34a1,1 0 0 0 -1,1l0,6a1,1 0 0 0 2,0l0,-6a1,1 0 0 0 -1,-1z"/>
   <path id="svg_4" fill="#ff7f00" d="m15,42a1,1 0 0 0 1,-1l0,-6a1,1 0 0 0 -2,0l0,6a1,1 0 0 0 1,1z"/>
   <path id="svg_5" fill="#ff7f00" d="m49,34a1,1 0 0 0 -1,1l0,6a1,1 0 0 0 2,0l0,-6a1,1 0 0 0 -1,-1z"/>
   <path id="svg_6" fill="#ff7f00" d="m29,14a3,3 0 1 0 3,-3a3,3 0 0 0 -3,3zm4,0a1,1 0 1 1 -1,-1a1,1 0 0 1 1,1z"/>
  </g>
 </g>
</svg>