<svg height="512" viewBox="0 0 64 64" width="512" xmlns="http://www.w3.org/2000/svg"><g id="Money-5" data-name="Money"><path d="m17 49h-12a2 2 0 0 0 -2 2v2a2 2 0 0 0 2 2h12a2 2 0 0 0 2-2v-2a2 2 0 0 0 -2-2z" fill="#ee8700"/><path d="m17 55h-12a2 2 0 0 0 -2 2v2a2 2 0 0 0 2 2h12a2 2 0 0 0 2-2v-2a2 2 0 0 0 -2-2z" fill="#cc7400"/><path d="m17 43h-12a2 2 0 0 0 -2 2v2a2 2 0 0 0 2 2h12a2 2 0 0 0 2-2v-2a2 2 0 0 0 -2-2z" fill="#ff9811"/><path d="m17 37h-12a2 2 0 0 0 -2 2v2a2 2 0 0 0 2 2h12a2 2 0 0 0 2-2v-2a2 2 0 0 0 -2-2z" fill="#ffa733"/><path d="m38 55h-12a2 2 0 0 0 -2 2v2a2 2 0 0 0 2 2h12a2 2 0 0 0 2-2v-2a2 2 0 0 0 -2-2z" fill="#cc7400"/><path d="m38 49h-12a2 2 0 0 0 -2 2v2a2 2 0 0 0 2 2h12a2 2 0 0 0 2-2v-2a2 2 0 0 0 -2-2z" fill="#ee8700"/><path d="m38 43h-12a2 2 0 0 0 -2 2v2a2 2 0 0 0 2 2h12a2 2 0 0 0 2-2v-2a2 2 0 0 0 -2-2z" fill="#ff9811"/><path d="m38 37h-12a2 2 0 0 0 -2 2v2a2 2 0 0 0 2 2h12a2 2 0 0 0 2-2v-2a2 2 0 0 0 -2-2z" fill="#ffa733"/><path d="m38 31h-12a2 2 0 0 0 -2 2v2a2 2 0 0 0 2 2h12a2 2 0 0 0 2-2v-2a2 2 0 0 0 -2-2z" fill="#ffb655"/><path d="m59 25h-12a2 2 0 0 0 -2 2v2a2 2 0 0 0 2 2h12a2 2 0 0 0 2-2v-2a2 2 0 0 0 -2-2z" fill="#ffc477"/><path d="m59 19h-12a2 2 0 0 0 -2 2v2a2 2 0 0 0 2 2h12a2 2 0 0 0 2-2v-2a2 2 0 0 0 -2-2z" fill="#ffb655"/><path d="m59 55h-12a2 2 0 0 0 -2 2v2a2 2 0 0 0 2 2h12a2 2 0 0 0 2-2v-2a2 2 0 0 0 -2-2z" fill="#cc7400"/><path d="m59 49h-12a2 2 0 0 0 -2 2v2a2 2 0 0 0 2 2h12a2 2 0 0 0 2-2v-2a2 2 0 0 0 -2-2z" fill="#ee8700"/><path d="m59 43h-12a2 2 0 0 0 -2 2v2a2 2 0 0 0 2 2h12a2 2 0 0 0 2-2v-2a2 2 0 0 0 -2-2z" fill="#ff9811"/><path d="m59 37h-12a2 2 0 0 0 -2 2v2a2 2 0 0 0 2 2h12a2 2 0 0 0 2-2v-2a2 2 0 0 0 -2-2z" fill="#ffa733"/><path d="m59 31h-12a2 2 0 0 0 -2 2v2a2 2 0 0 0 2 2h12a2 2 0 0 0 2-2v-2a2 2 0 0 0 -2-2z" fill="#ffb655"/><circle cx="11" cy="11" fill="#ff9811" r="8"/><path d="m11 3a8.056 8.056 0 0 0 -1.5.145 8 8 0 0 1 0 15.71 8 8 0 1 0 1.5-15.855z" fill="#e5890f"/><path d="m10.266 31.678a.991.991 0 0 0 .734.322 1 1 0 0 0 .679-.265l12.294-11.348 7.32 7.32a1 1 0 0 0 1.414 0l19.293-19.293v4.586a1 1 0 0 0 2 0v-7a1 1 0 0 0 -1-1h-7a1 1 0 0 0 0 2h4.586l-18.586 18.586-7.293-7.293a1 1 0 0 0 -1.386-.028l-13 12a1 1 0 0 0 -.055 1.413z" fill="#ed1c24"/><path d="m10 5v1a3 3 0 0 0 0 6h2a1 1 0 0 1 0 2h-2a1 1 0 0 1 -1-1 1 1 0 0 0 -2 0 3 3 0 0 0 3 3v1a1 1 0 0 0 2 0v-1a3 3 0 0 0 0-6h-2a1 1 0 0 1 0-2h2a1 1 0 0 1 1 1 1 1 0 0 0 2 0 3 3 0 0 0 -3-3v-1a1 1 0 0 0 -2 0z" fill="#ff5023"/><path d="m48 22h2v3h-2z" fill="#ffdaaa"/><path d="m52 22h2v3h-2z" fill="#ffdaaa"/><path d="m56 22h2v3h-2z" fill="#ffdaaa"/><path d="m48 28h2v3h-2z" fill="#ffdaaa"/><path d="m52 28h2v3h-2z" fill="#ffdaaa"/><path d="m56 28h2v3h-2z" fill="#ffdaaa"/><g fill="#ffc477"><path d="m48 34h2v3h-2z"/><path d="m52 34h2v3h-2z"/><path d="m56 34h2v3h-2z"/><path d="m48 40h2v3h-2z"/><path d="m52 40h2v3h-2z"/><path d="m56 40h2v3h-2z"/></g><path d="m48 46h2v3h-2z" fill="#ffa733"/><path d="m52 46h2v3h-2z" fill="#ffa733"/><path d="m56 46h2v3h-2z" fill="#ffa733"/><path d="m48 52h2v3h-2z" fill="#ff9811"/><path d="m52 52h2v3h-2z" fill="#ff9811"/><path d="m56 52h2v3h-2z" fill="#ff9811"/><path d="m48 58h2v3h-2z" fill="#ee8700"/><path d="m52 58h2v3h-2z" fill="#ee8700"/><path d="m56 58h2v3h-2z" fill="#ee8700"/><path d="m27 34h2v3h-2z" fill="#ffc477"/><path d="m31 34h2v3h-2z" fill="#ffc477"/><path d="m35 34h2v3h-2z" fill="#ffc477"/><path d="m27 40h2v3h-2z" fill="#ffb655"/><path d="m31 40h2v3h-2z" fill="#ffb655"/><path d="m35 40h2v3h-2z" fill="#ffb655"/><path d="m27 46h2v3h-2z" fill="#ffa733"/><path d="m31 46h2v3h-2z" fill="#ffa733"/><path d="m35 46h2v3h-2z" fill="#ffa733"/><path d="m27 52h2v3h-2z" fill="#ff9811"/><path d="m31 52h2v3h-2z" fill="#ff9811"/><path d="m35 52h2v3h-2z" fill="#ff9811"/><path d="m27 58h2v3h-2z" fill="#ee8700"/><path d="m31 58h2v3h-2z" fill="#ee8700"/><path d="m35 58h2v3h-2z" fill="#ee8700"/><path d="m6 40h2v3h-2z" fill="#ffb655"/><path d="m10 40h2v3h-2z" fill="#ffb655"/><path d="m14 40h2v3h-2z" fill="#ffb655"/><path d="m6 46h2v3h-2z" fill="#ffa733"/><path d="m10 46h2v3h-2z" fill="#ffa733"/><path d="m14 46h2v3h-2z" fill="#ffa733"/><path d="m6 52h2v3h-2z" fill="#ff9811"/><path d="m10 52h2v3h-2z" fill="#ff9811"/><path d="m14 52h2v3h-2z" fill="#ff9811"/><path d="m6 58h2v3h-2z" fill="#ee8700"/><path d="m10 58h2v3h-2z" fill="#ee8700"/><path d="m14 58h2v3h-2z" fill="#ee8700"/></g></svg>